Thu Oct 17 11:26:07 COT 2013
Parameter 1: /var/www/pyl5/ImageProcessing/Execution/vocabulary.xml
Parameter 2: /var/www/pyl5/www/output/images/393aa2c34e8c1d6a4007615575b1a5ab/script.xml
Parameter 3: /var/www/pyl5/www/output/images/393aa2c34e8c1d6a4007615575b1a5ab/score.xml
Parameter 4: /var/www/pyl5/ImageProcessing
Parameter 5: /var/www/pyl5/www/output/images/393aa2c34e8c1d6a4007615575b1a5ab/SoundFilm.log
Parameter 6: 
Parameter 7: 

ffmpeg version N-42091-gf7cba73 Copyright (c) 2000-2012 the FFmpeg developers
  built on Jul  1 2012 05:10:32 with gcc 4.6.3
  configuration: --prefix=/root/ffmpeg-static/32bit --arch=x86_32 --extra-cflags='-m32 -I/root/ffmpeg-static/32bit/include -static' --extra-ldflags='-m32 -L/root/ffmpeg-static/32bit/lib -static' --extra-libs='-lxml2 -lexpat -lfreetype' --enable-static --disable-shared --disable-ffserver --disable-doc --enable-bzlib --enable-zlib --enable-postproc --enable-runtime-cpudetect --enable-libx264 --enable-gpl --enable-libtheora --enable-libvorbis --enable-libmp3lame --enable-gray --enable-libass --enable-libfreetype --enable-libopenjpeg --enable-libspeex --enable-libvo-aacenc --enable-libvo-amrwbenc --enable-version3 --enable-libvpx
  libavutil      51. 63.100 / 51. 63.100
  libavcodec     54. 31.100 / 54. 31.100
  libavformat    54. 14.100 / 54. 14.100
  libavdevice    54.  0.100 / 54.  0.100
  libavfilter     3.  0.100 /  3.  0.100
  libswscale      2.  1.100 /  2.  1.100
  libswresample   0. 15.100 /  0. 15.100
  libpostproc    52.  0.100 / 52.  0.100
[wav @ 0xaa65660] max_analyze_duration 5000000 reached at 5015510
Guessed Channel Layout for  Input Stream #0.0 : stereo
Input #0, wav, from '/var/www/pyl5/www/output/images/393aa2c34e8c1d6a4007615575b1a5ab/tmpgarage.wav':
  Duration: 00:00:06.90, bitrate: 1411 kb/s
    Stream #0:0: Audio: pcm_s16le ([1][0][0][0] / 0x0001), 44100 Hz, stereo, s16, 1411 kb/s
[graph 0 input from stream 0:0 @ 0xaacd420] tb:1/44100 samplefmt:s16 samplerate:44100 chlayout:0x3
Output #0, mp3, to '/var/www/pyl5/www/output/images/393aa2c34e8c1d6a4007615575b1a5ab/squirrel.wav.mp3':
  Metadata:
    TSSE            : Lavf54.14.100
    Stream #0:0: Audio: mp3, 44100 Hz, stereo, s16, 128 kb/s
Stream mapping:
  Stream #0:0 -> #0:0 (pcm_s16le -> libmp3lame)
Press [q] to stop, [?] for help
size=      10kB time=00:00:00.60 bitrate= 139.3kbits/s    size=      19kB time=00:00:01.15 bitrate= 133.9kbits/s    size=      28kB time=00:00:01.75 bitrate= 131.9kbits/s    size=      41kB time=00:00:02.58 bitrate= 130.6kbits/s    size=      53kB time=00:00:03.31 bitrate= 130.1kbits/s    size=      61kB time=00:00:03.86 bitrate= 129.8kbits/s    size=      71kB time=00:00:04.46 bitrate= 129.5kbits/s    size=      79kB time=00:00:05.01 bitrate= 129.4kbits/s    size=      87kB time=00:00:05.53 bitrate= 129.2kbits/s    size=      96kB time=00:00:06.08 bitrate= 129.1kbits/s    size=     105kB time=00:00:06.63 bitrate= 129.0kbits/s    size=     109kB time=00:00:06.92 bitrate= 129.0kbits/s    
video:0kB audio:109kB subtitle:0 global headers:0kB muxing overhead 0.406559%
ffmpeg version N-42091-gf7cba73 Copyright (c) 2000-2012 the FFmpeg developers
  built on Jul  1 2012 05:10:32 with gcc 4.6.3
  configuration: --prefix=/root/ffmpeg-static/32bit --arch=x86_32 --extra-cflags='-m32 -I/root/ffmpeg-static/32bit/include -static' --extra-ldflags='-m32 -L/root/ffmpeg-static/32bit/lib -static' --extra-libs='-lxml2 -lexpat -lfreetype' --enable-static --disable-shared --disable-ffserver --disable-doc --enable-bzlib --enable-zlib --enable-postproc --enable-runtime-cpudetect --enable-libx264 --enable-gpl --enable-libtheora --enable-libvorbis --enable-libmp3lame --enable-gray --enable-libass --enable-libfreetype --enable-libopenjpeg --enable-libspeex --enable-libvo-aacenc --enable-libvo-amrwbenc --enable-version3 --enable-libvpx
  libavutil      51. 63.100 / 51. 63.100
  libavcodec     54. 31.100 / 54. 31.100
  libavformat    54. 14.100 / 54. 14.100
  libavdevice    54.  0.100 / 54.  0.100
  libavfilter     3.  0.100 /  3.  0.100
  libswscale      2.  1.100 /  2.  1.100
  libswresample   0. 15.100 /  0. 15.100
  libpostproc    52.  0.100 / 52.  0.100
[wav @ 0xa8b9660] max_analyze_duration 5000000 reached at 5015510
Guessed Channel Layout for  Input Stream #0.0 : mono
Input #0, wav, from '/var/www/pyl5/www/output/images/393aa2c34e8c1d6a4007615575b1a5ab/tmpgarage.wav':
  Duration: 00:00:07.35, bitrate: 705 kb/s
    Stream #0:0: Audio: pcm_s16le ([1][0][0][0] / 0x0001), 44100 Hz, mono, s16, 705 kb/s
[graph 0 input from stream 0:0 @ 0xa8bf900] tb:1/44100 samplefmt:s16 samplerate:44100 chlayout:0x4
Output #0, mp3, to '/var/www/pyl5/www/output/images/393aa2c34e8c1d6a4007615575b1a5ab/chinchilla.wav.mp3':
  Metadata:
    TSSE            : Lavf54.14.100
    Stream #0:0: Audio: mp3, 44100 Hz, mono, s16, 128 kb/s
Stream mapping:
  Stream #0:0 -> #0:0 (pcm_s16le -> libmp3lame)
Press [q] to stop, [?] for help
size=      19kB time=00:00:01.17 bitrate= 133.8kbits/s    size=      40kB time=00:00:02.53 bitrate= 130.7kbits/s    size=      61kB time=00:00:03.84 bitrate= 129.8kbits/s    size=      66kB time=00:00:04.15 bitrate= 129.6kbits/s    size=      86kB time=00:00:05.46 bitrate= 129.2kbits/s    size=     106kB time=00:00:06.71 bitrate= 129.0kbits/s    size=     116kB time=00:00:07.36 bitrate= 128.9kbits/s    
video:0kB audio:116kB subtitle:0 global headers:0kB muxing overhead 0.382138%
Hello, SBI!
temporal = /var/www/pyl5/www/output/images/393aa2c34e8c1d6a4007615575b1a5ab/
el script es valido
el vocabulario es valido
listo para los objetos
el objeto que da es Rabbit
el objeto que da es Rabbit
listo para los actores
el actor que da es Butterfly
el actor que da es FlyingSquirrel
el actor que da es Bird
el actor que da es Apple
el actor que da es Chinchilla
el actor que da es Squirrel
el actor que da es SBCamera
el objeto que da es Squirrel
el objeto que da es Squirrel
listo para los actores
el actor que da es Butterfly
el actor que da es FlyingSquirrel
el actor que da es Bird
el actor que da es Apple
el actor que da es Chinchilla
el actor que da es Squirrel
el objeto que da es Squirrel
es fondo o voz
es el por defecto
el sonido por defecto del actor es SquirrelDefault
hola
you can do it
you can do it
you can do it
temporal string = /var/www/pyl5/www/output/images/393aa2c34e8c1d6a4007615575b1a5ab/
copiando /var/www/pyl5/ImageProcessing/SoundFilm/squirrel.wav en /var/www/pyl5/www/output/images/393aa2c34e8c1d6a4007615575b1a5ab/tmp_1.wav
copiando /var/www/pyl5/ImageProcessing/SoundFilm/squirrel.wav en /var/www/pyl5/www/output/images/393aa2c34e8c1d6a4007615575b1a5ab/tmp_2.wav
copiando /var/www/pyl5/ImageProcessing/SoundFilm/squirrel.wav en /var/www/pyl5/www/output/images/393aa2c34e8c1d6a4007615575b1a5ab/tmp_3.wav
copiando /var/www/pyl5/ImageProcessing/SoundFilm/squirrel.wav en /var/www/pyl5/www/output/images/393aa2c34e8c1d6a4007615575b1a5ab/tmp_4.wav
copiando /var/www/pyl5/ImageProcessing/SoundFilm/squirrel.wav en /var/www/pyl5/www/output/images/393aa2c34e8c1d6a4007615575b1a5ab/tmp_5.wav
tu
el actor es ::Squirrel::
la animacion del actor es ::-default-::
la de la acciones ::CLAP::
el actor es ::Squirrel::
la animacion del actor es ::-default-::
la de la acciones ::FLAP::
el actor que da es SBCamera
el objeto que da es Chinchilla
el objeto que da es Chinchilla
listo para los actores
el actor que da es Butterfly
el actor que da es FlyingSquirrel
el actor que da es Bird
el actor que da es Apple
el actor que da es Chinchilla
el objeto que da es Chinchilla
es fondo o voz
es el por defecto
el sonido por defecto del actor es ChinchillaDefault
hola
you can do it
you can do it
you can do it
temporal string = /var/www/pyl5/www/output/images/393aa2c34e8c1d6a4007615575b1a5ab/
copiando /var/www/pyl5/ImageProcessing/SoundFilm/chinchilla.wav en /var/www/pyl5/www/output/images/393aa2c34e8c1d6a4007615575b1a5ab/tmp_1.wav
copiando /var/www/pyl5/ImageProcessing/SoundFilm/chinchilla.wav en /var/www/pyl5/www/output/images/393aa2c34e8c1d6a4007615575b1a5ab/tmp_2.wav
copiando /var/www/pyl5/ImageProcessing/SoundFilm/chinchilla.wav en /var/www/pyl5/www/output/images/393aa2c34e8c1d6a4007615575b1a5ab/tmp_3.wav
copiando /var/www/pyl5/ImageProcessing/SoundFilm/chinchilla.wav en /var/www/pyl5/www/output/images/393aa2c34e8c1d6a4007615575b1a5ab/tmp_4.wav
copiando /var/www/pyl5/ImageProcessing/SoundFilm/chinchilla.wav en /var/www/pyl5/www/output/images/393aa2c34e8c1d6a4007615575b1a5ab/tmp_5.wav
tu
el actor es ::Chinchilla::
la animacion del actor es ::-default-::
la de la acciones ::EAT::
el actor es ::Chinchilla::
la animacion del actor es ::-default-::
la de la acciones ::RUN::
el actor que da es Squirrel
el actor que da es SBCamera
el objeto que da es Butterfly
el objeto que da es Butterfly
listo para los actores
el actor que da es Butterfly
el objeto que da es Butterfly
el actor que da es FlyingSquirrel
el actor que da es Bird
el actor que da es Apple
el actor que da es Chinchilla
el actor que da es Squirrel
el actor que da es SBCamera
el objeto que da es Bird
el objeto que da es Bird
listo para los actores
el actor que da es Butterfly
el actor que da es FlyingSquirrel
el actor que da es Bird
el objeto que da es Bird
es fondo o voz
es el por defecto
el sonido por defecto del actor es BirdDefault
hola
you can do it
you can do it
you can do it
temporal string = /var/www/pyl5/www/output/images/393aa2c34e8c1d6a4007615575b1a5ab/
copiando /var/www/pyl5/ImageProcessing/SoundFilm/bird001.wav en /var/www/pyl5/www/output/images/393aa2c34e8c1d6a40076ffmpeg version N-42091-gf7cba73 Copyright (c) 2000-2012 the FFmpeg developers
  built on Jul  1 2012 05:10:32 with gcc 4.6.3
  configuration: --prefix=/root/ffmpeg-static/32bit --arch=x86_32 --extra-cflags='-m32 -I/root/ffmpeg-static/32bit/include -static' --extra-ldflags='-m32 -L/root/ffmpeg-static/32bit/lib -static' --extra-libs='-lxml2 -lexpat -lfreetype' --enable-static --disable-shared --disable-ffserver --disable-doc --enable-bzlib --enable-zlib --enable-postproc --enable-runtime-cpudetect --enable-libx264 --enable-gpl --enable-libtheora --enable-libvorbis --enable-libmp3lame --enable-gray --enable-libass --enable-libfreetype --enable-libopenjpeg --enable-libspeex --enable-libvo-aacenc --enable-libvo-amrwbenc --enable-version3 --enable-libvpx
  libavutil      51. 63.100 / 51. 63.100
  libavcodec     54. 31.100 / 54. 31.100
  libavformat    54. 14.100 / 54. 14.100
  libavdevice    54.  0.100 / 54.  0.100
  libavfilter     3.  0.100 /  3.  0.100
  libswscale      2.  1.100 /  2.  1.100
  libswresample   0. 15.100 /  0. 15.100
  libpostproc    52.  0.100 / 52.  0.100
[wav @ 0xa96b660] max_analyze_duration 5000000 reached at 5015510
Guessed Channel Layout for  Input Stream #0.0 : mono
Input #0, wav, from '/var/www/pyl5/www/output/images/393aa2c34e8c1d6a4007615575b1a5ab/tmpgarage.wav':
  Duration: 00:00:13.07, bitrate: 705 kb/s
    Stream #0:0: Audio: pcm_s16le ([1][0][0][0] / 0x0001), 44100 Hz, mono, s16, 705 kb/s
[graph 0 input from stream 0:0 @ 0xa971900] tb:1/44100 samplefmt:s16 samplerate:44100 chlayout:0x4
Output #0, mp3, to '/var/www/pyl5/www/output/images/393aa2c34e8c1d6a4007615575b1a5ab/bird001.wav.mp3':
  Metadata:
    TSSE            : Lavf54.14.100
    Stream #0:0: Audio: mp3, 44100 Hz, mono, s16, 128 kb/s
Stream mapping:
  Stream #0:0 -> #0:0 (pcm_s16le -> libmp3lame)
Press [q] to stop, [?] for help
size=      21kB time=00:00:01.28 bitrate= 133.3kbits/s    size=      42kB time=00:00:02.66 bitrate= 130.6kbits/s    size=      65kB time=00:00:04.07 bitrate= 129.7kbits/s    size=      85kB time=00:00:05.35 bitrate= 129.3kbits/s    size=     107kB time=00:00:06.76 bitrate= 129.0kbits/s    size=     127kB time=00:00:08.04 bitrate= 128.8kbits/s    size=     149kB time=00:00:09.50 bitrate= 128.7kbits/s    size=     172kB time=00:00:10.94 bitrate= 128.6kbits/s    size=     202kB time=00:00:12.87 bitrate= 128.5kbits/s    size=     205kB time=00:00:13.08 bitrate= 128.5kbits/s    
video:0kB audio:205kB subtitle:0 global headers:0kB muxing overhead 0.215428%
ffmpeg version N-42091-gf7cba73 Copyright (c) 2000-2012 the FFmpeg developers
  built on Jul  1 2012 05:10:32 with gcc 4.6.3
  configuration: --prefix=/root/ffmpeg-static/32bit --arch=x86_32 --extra-cflags='-m32 -I/root/ffmpeg-static/32bit/include -static' --extra-ldflags='-m32 -L/root/ffmpeg-static/32bit/lib -static' --extra-libs='-lxml2 -lexpat -lfreetype' --enable-static --disable-shared --disable-ffserver --disable-doc --enable-bzlib --enable-zlib --enable-postproc --enable-runtime-cpudetect --enable-libx264 --enable-gpl --enable-libtheora --enable-libvorbis --enable-libmp3lame --enable-gray --enable-libass --enable-libfreetype --enable-libopenjpeg --enable-libspeex --enable-libvo-aacenc --enable-libvo-amrwbenc --enable-version3 --enable-libvpx
  libavutil      51. 63.100 / 51. 63.100
  libavcodec     54. 31.100 / 54. 31.100
  libavformat    54. 14.100 / 54. 14.100
  libavdevice    54.  0.100 / 54.  0.100
  libavfilter     3.  0.100 /  3.  0.100
  libswscale      2.  1.100 /  2.  1.100
  libswresample   0. 15.100 /  0. 15.100
  libpostproc    52.  0.100 / 52.  0.100
[wav @ 0x96c7660] max_analyze_duration 5000000 reached at 5015510
Guessed Channel Layout for  Input Stream #0.0 : stereo
Input #0, wav, from '/var/www/pyl5/www/output/images/393aa2c34e8c1d6a4007615575b1a5ab/tmpgarage.wav':
  Duration: 00:00:05.99, bitrate: 1411 kb/s
    Stream #0:0: Audio: pcm_s16le ([1][0][0][0] / 0x0001), 44100 Hz, stereo, s16, 1411 kb/s
[graph 0 input from stream 0:0 @ 0x972f420] tb:1/44100 samplefmt:s16 samplerate:44100 chlayout:0x3
Output #0, mp3, to '/var/www/pyl5/www/output/images/393aa2c34e8c1d6a4007615575b1a5ab/fsquirrel.wav.mp3':
  Metadata:
    TSSE            : Lavf54.14.100
    Stream #0:0: Audio: mp3, 44100 Hz, stereo, s16, 128 kb/s
Stream mapping:
  Stream #0:0 -> #0:0 (pcm_s16le -> libmp3lame)
Press [q] to stop, [?] for help
size=       9kB time=00:00:00.52 bitrate= 141.0kbits/s    size=      18kB time=00:00:01.12 bitrate= 134.1kbits/s    size=      27kB time=00:00:01.67 bitrate= 132.1kbits/s    size=      37kB time=00:00:02.32 bitrate= 130.9kbits/s    size=      56kB time=00:00:03.52 bitrate= 129.9kbits/s    size=      65kB time=00:00:04.07 bitrate= 129.7kbits/s    size=      81kB time=00:00:05.12 bitrate= 129.3kbits/s    size=      93kB time=00:00:05.87 bitrate= 129.2kbits/s    size=      95kB time=00:00:06.00 bitrate= 129.1kbits/s    
video:0kB audio:94kB subtitle:0 global headers:0kB muxing overhead 0.468161%
15575b1a5ab/tmp_1.wav
copiando /var/www/pyl5/ImageProcessing/SoundFilm/bird001.wav en /var/www/pyl5/www/output/images/393aa2c34e8c1d6a4007615575b1a5ab/tmp_2.wav
copiando /var/www/pyl5/ImageProcessing/SoundFilm/bird001.wav en /var/www/pyl5/www/output/images/393aa2c34e8c1d6a4007615575b1a5ab/tmp_3.wav
copiando /var/www/pyl5/ImageProcessing/SoundFilm/bird001.wav en /var/www/pyl5/www/output/images/393aa2c34e8c1d6a4007615575b1a5ab/tmp_4.wav
copiando /var/www/pyl5/ImageProcessing/SoundFilm/bird001.wav en /var/www/pyl5/www/output/images/393aa2c34e8c1d6a4007615575b1a5ab/tmp_5.wav
tu
el actor es ::Bird::
la animacion del actor es ::-default-::
la de la acciones ::FLAP::
el actor que da es Apple
el actor que da es Chinchilla
el actor que da es Squirrel
el actor que da es SBCamera
el objeto que da es FlyingSquirrel
el objeto que da es FlyingSquirrel
listo para los actores
el actor que da es Butterfly
el actor que da es FlyingSquirrel
el objeto que da es FlyingSquirrel
es fondo o voz
es el por defecto
el sonido por defecto del actor es FlyingSquirrelDefault
hola
you can do it
you can do it
you can do it
temporal string = /var/www/pyl5/www/output/images/393aa2c34e8c1d6a4007615575b1a5ab/
copiando /var/www/pyl5/ImageProcessing/SoundFilm/fsquirrel.wav en /var/www/pyl5/www/output/images/393aa2c34e8c1d6a4007615575b1a5ab/tmp_1.wav
copiando /var/www/pyl5/ImageProcessing/SoundFilm/fsquirrel.wav en /var/www/pyl5/www/output/images/393aa2c34e8c1d6a4007615575b1a5ab/tmp_2.wav
copiando /var/www/pyl5/ImageProcessing/SoundFilm/fsquirrel.wav en /var/www/pyl5/www/output/images/393aa2c34e8c1d6a4007615575b1a5ab/tmp_3.wav
copiando /var/www/pyl5/ImageProcessing/SoundFilm/fsquirrel.wav en /var/www/pyl5/www/output/images/393aa2c34e8c1d6a4007615575b1a5ab/tmp_4.wav
copiando /var/www/pyl5/ImageProcessing/SoundFilm/fsquirrel.wav en /var/www/pyl5/www/output/images/393aa2c34e8c1d6a4007615575b1a5ab/tmp_5.wav
tu
el actor es ::FlyingSquirrel::
la animacion del actor es ::-default-::
la de la acciones ::FLAP::
el actor es ::FlyingSquirrel::
la animacion del actor es ::-default-::
la de la acciones ::RUN::
el actor que da es Bird
el actor que da es Apple
el actor que da es Chinchilla
el actor que da es Squirrel
el actor que da es SBCamera
el objeto que da es Apple
el objeto que da es Apple
listo para los actores
el actor que da es Butterfly
el actor que da es FlyingSquirrel
el actor que da es Bird
el actor que da es Apple
el objeto que da es Apple
el actor que da es Chinchilla
el actor que da es Squirrel
el actor que da es SBCamera
el objeto que da es SBCamera
el objeto que da es SBCamera
listo para los actores
el actor que da es Butterfly
el actor que da es FlyingSquirrel
el actor que da es Bird
el actor que da es Apple
el actor que da es Chinchilla
el actor que da es Squirrel
el actor que da es SBCamera
el objeto que da es SBCamera
el objeto que da es SBRectangle
el objeto que da es SBRectangle
listo para los actores
el actor que da es Butterfly
el actor que da es FlyingSquirrel
el actor que da es Bird
el actor que da es Apple
el actor que da es Chinchilla
el actor que da es Squirrel
el actor que da es SBCamera
sayonara, SBI!

Thu Oct 17 11:26:28 COT 2013
